<?xml version="1.0" encoding="utf-8"?>
<!-- Generator: Adobe Illustrator 21.1.0, SVG Export Plug-In . SVG Version: 6.00 Build 0)  -->
<svg version="1.1" id="Calque_1" xmlns="http://www.w3.org/2000/svg" xmlns:xlink="http://www.w3.org/1999/xlink" x="0px" y="0px"
	 viewBox="0 0 432 432" style="enable-background:new 0 0 432 432;" xml:space="preserve">
<style type="text/css">
	.st0{fill:#BE1622;}
	.st1{fill:#C69C6C;}
	.st2{fill:#F39200;}
	.st3{fill:#F9B03D;}
	.st4{fill:#5BA7AD;}
	.st5{fill:#3F7579;}
	.st6{fill:#1B1B1B;}
	.st7{fill:#FFFFFF;}
	.st8{fill:#D8B6C4;}
	.st9{fill:#765844;}
	.st10{fill:#E9B2C5;}
	.st11{fill:#C7B29A;}
	.st12{fill:#EDBD7D;}
	.st13{fill:#1D71B8;}
	.st14{fill:#95C11F;}
	.st15{fill:#E94E1B;}
	.st16{fill:#575756;}
	.st17{fill:#844C16;}
	.st18{fill:#E50071;}
	.st19{fill:#AF175D;}
	.st20{fill:#E4051E;}
	.st21{fill:#13110C;}
	.st22{fill:#891A2C;}
	.st23{fill:#28295F;}
	.st24{fill:#CECFBC;}
	.st25{fill:#981F24;}
	.st26{fill:#020203;}
	.st27{fill:#BC2333;}
	.st28{fill:#AD1917;}
	.st29{fill:#04683B;}
	.st30{fill:#049348;}
	.st31{fill:#2D3D8D;}
	.st32{fill:#F39233;}
	.st33{fill:#EB5C35;}
	.st34{fill:#AA1917;}
	.st35{fill:#55514F;}
	.st36{fill:#20376D;}
	.st37{fill:#B3BBC5;}
	.st38{fill:#BAC6BC;}
	.st39{fill:#B4BA8C;}
	.st40{fill:#746458;}
	.st41{fill:#343434;}
	.st42{fill:#CEC3BC;}
	.st43{fill:#FBBA0E;}
	.st44{fill:#FED98D;}
	.st45{fill:#676767;}
	.st46{fill:#8DBE22;}
	.st47{fill:#D0E1A4;}
	.st48{fill:#EFE8E4;}
	.st49{fill:#754695;}
	.st50{fill:#A78BC0;}
	.st51{fill:#8EC045;}
	.st52{fill:#0D71B9;}
	.st53{fill:#EAC686;}
	.st54{fill:#D24063;}
	.st55{fill:#E2A11A;}
	.st56{fill:#E9BD71;}
	.st57{fill:#E8423E;}
	.st58{fill:#F8AE4C;}
	.st59{fill:#00A19A;}
	.st60{fill:#2578B9;}
	.st61{fill:#A29F9D;}
	.st62{fill:#D2B89A;}
	.st63{fill:#E6C2A9;}
	.st64{fill:#6E3B11;}
	.st65{fill:#9B6228;}
	.st66{fill:#C9A1CB;}
	.st67{fill:#F8AB00;}
	.st68{fill:#BEBBBB;}
	.st69{fill:#066938;}
	.st70{fill:#36A36A;}
	.st71{fill:#4F702A;}
	.st72{fill:#A4191E;}
	.st73{fill:#3AAA35;}
	.st74{fill:#D01419;}
	.st75{fill:#CA1527;}
	.st76{fill:#684A40;}
	.st77{fill:#9A7B65;}
	.st78{fill:#FBB700;}
	.st79{fill:#82BB26;}
	.st80{fill:#00A8E4;}
	.st81{fill:#CEA57B;}
	.st82{fill:#57B031;}
	.st83{fill:#E5251F;}
	.st84{fill:#EFDD37;}
	.st85{fill:#59C4E9;}
	.st86{fill:#F08017;}
	.st87{fill:#974393;}
	.st88{fill:#F9EA31;}
	.st89{fill:#C1292E;}
	.st90{fill:#F2D77E;}
	.st91{fill:#E6332A;}
	.st92{fill:#29235C;}
	.st93{fill:#3C3C3B;}
	.st94{fill:#2FAC66;}
	.st95{fill:#2D2E83;}
	.st96{fill:#645B51;}
	.st97{fill:#36A9E1;}
	.st98{fill:#312783;}
	.st99{fill:#2E4959;}
	.st100{fill:#5F8699;}
	.st101{fill:#172B35;}
	.st102{fill:#C3D5E4;}
	.st103{fill:#7B9135;}
	.st104{fill:#E59546;}
	.st105{fill:#B2C65F;}
	.st106{fill:#85BBB7;}
	.st107{fill:#F39323;}
	.st108{fill:#FFFFFE;}
	.st109{fill:#EFD2AC;}
	.st110{fill:#C0E0EF;}
	.st111{fill:#EFDAEC;}
	.st112{fill:#63B8A4;}
	.st113{fill:#BDCCD4;}
	.st114{fill:#8C633A;}
	.st115{fill:#CA9E67;}
	.st116{fill:#7D4E24;}
	.st117{fill:#B8B569;}
	.st118{fill:#E8C515;}
	.st119{fill:#A5A258;}
	.st120{fill:#AA884D;}
	.st121{fill:#9E994B;}
	.st122{fill:#D1A479;}
	.st123{fill:#936037;}
	.st124{fill:#FAFAFA;}
	.st125{fill:#98CDC5;}
	.st126{fill:#E1EBE8;}
	.st127{fill:#DDCE9E;}
	.st128{fill:#A67D52;}
	.st129{fill:#437156;}
	.st130{fill:#4F8366;}
	.st131{fill:#8F6947;}
	.st132{fill:#856143;}
	.st133{fill:#171512;}
	.st134{fill:#AA191B;}
	.st135{fill:#1C1A38;}
	.st136{fill:#8E8C38;}
	.st137{fill:#CAC955;}
	.st138{fill:#6C6A29;}
	.st139{fill:#D8D564;}
	.st140{fill:#5CABD5;}
	.st141{fill:#70B4D9;}
	.st142{fill:#9A9999;}
	.st143{fill:#B4B4B4;}
	.st144{fill:#ABAA3D;}
	.st145{fill:#D7DB2F;}
	.st146{fill:#B8CED8;}
	.st147{fill:#05AB9E;}
	.st148{fill:#DAB828;}
	.st149{fill:#EB7533;}
	.st150{fill:#EDE4CA;}
	.st151{fill:#575452;}
	.st152{fill:#F9F6F4;}
	.st153{fill:#94B2AA;}
	.st154{fill:#D8D7C4;}
	.st155{fill:#BAD68E;}
	.st156{fill:#F0E6E1;}
	.st157{fill:#BFD786;}
	.st158{fill:#E9E499;}
	.st159{fill:#A2D3C2;}
	.st160{fill:#EB7976;}
	.st161{fill:#EEF4E7;}
	.st162{fill:#EADA7F;}
	.st163{fill:#B2D9C2;}
	.st164{fill:#43B284;}
	.st165{fill:#9AC028;}
	.st166{fill:#D8AD80;}
	.st167{fill:#F2F2F2;}
	.st168{fill:#767574;}
	.st169{fill:#CDC8C6;}
	.st170{fill:#634E42;}
	.st171{fill:#E4E0DF;}
	.st172{fill:#D98F53;}
	.st173{fill:#E2CAB5;}
	.st174{fill:#B61824;}
	.st175{fill:#E2BAA0;}
	.st176{fill:#CF455A;}
	.st177{fill:#648546;}
	.st178{fill:#4F6834;}
	.st179{fill:#91BB64;}
	.st180{fill:#D1CE4D;}
	.st181{fill:#CFCE67;}
	.st182{fill:#E5E4BD;}
	.st183{fill:#A69F28;}
	.st184{fill:#E3BF32;}
	.st185{fill:#E68024;}
	.st186{fill:#D27444;}
	.st187{fill:#D1B05A;}
	.st188{fill:#F4E3BD;}
	.st189{fill:#668852;}
	.st190{fill:#A3C18F;}
	.st191{fill:#D8B41E;}
	.st192{fill:#E2DBBA;}
	.st193{fill:#603914;}
	.st194{fill:#CF1042;}
	.st195{fill:#2F8A7F;}
	.st196{fill:#D19A69;}
	.st197{fill:#E9C3A4;}
	.st198{fill:#F2BF21;}
	.st199{fill:#CFD3D1;}
	.st200{fill:#E9F2ED;}
	.st201{fill:#4E4D4D;}
	.st202{fill:#C4E2D0;}
	.st203{fill:#F3F3F3;}
	.st204{fill:#F8FAF9;}
	.st205{fill:#C6B5A8;}
	.st206{fill:#F2F1E7;}
	.st207{fill:#CEC87B;}
	.st208{fill:#C7E4E5;}
	.st209{fill:#D4894A;}
	.st210{fill:#FBFDFA;}
	.st211{fill:#B4CD5F;}
	.st212{fill:#1F1B15;}
	.st213{fill:#161210;}
	.st214{fill:#A8D1D2;}
	.st215{fill:#8E6640;}
	.st216{fill:#B22518;}
	.st217{fill:#683F1D;}
	.st218{fill:#F0F7F7;}
	.st219{fill:#CD924B;}
	.st220{fill:#CDCCCC;}
	.st221{fill:#F2D7C0;}
	.st222{fill:#B21924;}
	.st223{fill:#EDCEB1;}
	.st224{fill:#7D552C;}
	.st225{fill:#A0BC6F;}
	.st226{fill:#94AD65;}
	.st227{fill:#E7E6E6;}
	.st228{fill:#9FD6DB;}
	.st229{fill:#EACD7F;}
	.st230{fill:#E28C52;}
	.st231{fill:#141414;}
	.st232{fill:#E97E28;}
	.st233{fill:#D0C657;}
	.st234{fill:#F3BC95;}
	.st235{fill:#FBFDFC;}
	.st236{fill:#CA252F;}
	.st237{fill:#B8B6B7;}
	.st238{fill:#808181;}
	.st239{fill:#F7F5DB;}
	.st240{fill:#CA1618;}
	.st241{fill:#FDC30B;}
	.st242{fill:#5F3917;}
	.st243{fill:#FFDA36;}
	.st244{fill:#AB7049;}
	.st245{fill:#619DCF;}
	.st246{fill:#45779A;}
	.st247{fill:#68AFA1;}
	.st248{fill:#108E77;}
	.st249{fill:#A5779F;}
	.st250{fill:#008D36;}
	.st251{fill:#E83E49;}
	.st252{fill:#A12D38;}
	.st253{fill-rule:evenodd;clip-rule:evenodd;fill:#677124;}
</style>
<g>
	<g>
		<g>
			<g>
				<path class="st26" d="M233.5,283.1c-6.7-1.7-8.4,10.4-8.9,14.7c5.3,0,10.5-0.2,15.5-0.5C239.9,292.9,238.7,284.5,233.5,283.1z"
					/>
			</g>
			<g>
				<path class="st26" d="M212.8,284.3c-4.9-0.3-6,9.7-6.4,13c0,0,0,0,0,0.1c4.5,0.3,9.2,0.4,13.9,0.5
					C219.4,293.8,217.5,284.5,212.8,284.3z"/>
			</g>
			<g>
				<path class="st26" d="M180.6,282.3c-4.2-0.9-4.4,5.6-4.4,8.5c1.5,1.5,4.9,2.8,9.4,3.8C185.4,291.1,184.5,283.2,180.6,282.3z"/>
			</g>
			<g>
				<path class="st26" d="M196.5,283.2c-4.7-1-6.1,8.5-6.6,12.3c3.7,0.6,7.8,1.1,12.3,1.5C201.9,293.5,201,284.2,196.5,283.2z"/>
			</g>
			<g>
				<path class="st26" d="M260,294.3c-0.4-2.1-3.1-13.8-7.3-12.7c-1.9,0.5-3.4,5.1-4,6.5c-1.1,2.6-1.9,6.1-3.5,8.7
					c5.7-0.5,10.8-1.3,14.9-2.2C260.1,294.5,260,294.4,260,294.3z"/>
			</g>
			<g>
				<path class="st26" d="M269.5,290.5c1.7-2,2.5-5.5,2.9-9.7c0,0,0,0,0,0c-9.1-5.7-7.6,7.3-8.2,12.7
					C266.7,292.6,268.6,291.6,269.5,290.5z"/>
			</g>
			<g>
				<g>
					<path class="st26" d="M316.5,195.9C326.8,165,318,52.1,199.6,66c-86.2,10.1-83.4,78.4-84.7,134l-3.7,1.8
						c-35.3,12.9-34.1,66.1,35.7,44.1c5.8-1.8,11.6-6.6,17.2-4.2c5.4,2.3,6.5,8.8,6.9,14.2c1.1,15.3,1.4,23.2,2.2,27.8
						c1.1-3.3,3.2-6,7.1-5.7c4.1,0.3,6.5,3.7,7.9,7.7c1.6-4.1,4.3-7.5,8.9-6.7c3.9,0.7,6.2,4.1,7.5,7.9c1.4-3.6,3.7-6.6,7.5-7
						c5.1-0.5,8.2,4.2,10.1,9.2c1.7-5.7,4.9-11,11.1-10.3c6.1,0.7,9,6.7,10.3,12.5c1.8-4.6,2.3-10.3,6.8-13.1
						c4.2-2.6,7.6,0.3,10,4.5c0.3-2.3,1.1-4.4,2.8-6c2.6-2.3,6.6-1.8,9.7-0.5c0.4-9.6-0.3-21.5,1.5-30.4c6.1-29.5,36,1.9,58-3.9
						C358.1,235.1,351.5,196.1,316.5,195.9z M147.4,197.6c-16.2-6.7-12.5-34.8-9.8-35.9c0.3-0.4,37.4-10.1,45.1-8.4
						C205.7,158.5,209,223.1,147.4,197.6z M235.7,236.9c-3.4,7-13.1,3.1-17.4-3.2c-2.9,5.7-7.1,9.7-13.6,6.8c-8-3.5-3.6-12.2,7-31.8
						c1.6-3,4.5-4.1,6.8-2.8C226.8,210.1,239.9,228.1,235.7,236.9z"/>
				</g>
			</g>
			<g>
				<g>
					<path class="st26" d="M321.8,257.7c-10.1-8.8-24.2-6.1-35.2,1.9c-6.1,4.4,2.2,12.7,8.4,8.4c8.1-5.5,17.2-5.5,22.3,2.5
						c5.6,8.7,3.3,19.6-1.7,28c-7.9,13.3-21.4,21.4-35.9,26.2c-2.1-6.2-8.8-13-15.8-11.4c-4.2,1-6.3,5-7.6,9.3
						c-1.8-5-5.4-9.1-11.3-9.1c-6.2,0-9.4,4.5-10.8,9.8c-2.2-5.7-5.8-10.7-12.4-10.5c-3.9,0.1-8.1,2.1-10.4,5.3
						c-0.9,1.3-1.5,2.7-1.9,4.2c-1.6-5.8-5.4-10.2-13-9.4c-3.9,0.4-6.1,2.2-7.3,4.7c-1.2-3.3-3.4-5.9-7.3-6.4
						c-7.3-0.8-11.1,7.2-12.3,13.4c-10.6-3.9-20.3-9.8-27.7-18.7c-6.2-7.4-10.7-17.1-10.4-26.9c0.1-4.8,1.5-10.9,6-13.6
						c2.7-1.6,8.5-1.8,9.9,1.7c2.9,7,14.5,3.9,11.5-3.2c-4.1-9.8-14.7-14-24.7-10.1c-11.3,4.4-15.4,17.7-14.5,28.8
						c1.8,23.7,19.7,41.6,40.5,50.9c1.3,16.7,5.4,24.2,21.9,28.8c38,10.6,95.3,0.8,101.8-4.9c2.7-2.4,7.9-17.2,6.5-24.2
						c17.4-7.2,32.8-19,39.6-37.2C334.7,283.1,332.8,267.2,321.8,257.7z M186.8,329.3c-4.7-0.8-9.3-1.9-13.8-3.4
						c0.8-4.3,2.9-11,8-11C187.3,315,187.1,324.8,186.8,329.3z M206.9,331.5c-3.7-0.2-7.3-0.5-10.9-0.9c-1.9-0.2-3.8-0.5-5.7-0.7
						c0,0,0-0.1,0-0.1c0.6-4.7-0.3-11.1,5.3-13C205.2,313.6,207,324.4,206.9,331.5z M211.1,331.7c1.6-5.6,1-12.2,7.7-14.6
						c9.2-3.3,12.5,7.7,14.1,14.8C225.7,332.2,218.4,332.1,211.1,331.7z M236.8,331.8c-0.1-5.6,1-14.6,8.2-14.6
						c6.6,0,8.9,7.7,9.2,13.1C248.4,331,242.6,331.5,236.8,331.8z M263.3,328.9c-1.7,0.3-3.4,0.6-5.1,0.8c0.7-3.3,1.4-7.2,3.3-9.9
						c4.9-7.1,12.6,0.4,14.8,6C271.9,327.1,267.6,328.1,263.3,328.9z"/>
				</g>
			</g>
		</g>
		<path class="st89" d="M315,118.5c-32.2,10.1-65.5,15.1-99,18.2c-34,3.2-68.5,4.3-102.2-2.1c-5.3-1-7.5,7-2.2,8.1
			c34.5,6.6,69.6,5.7,104.4,2.4c2.8-0.3,5.6-0.5,8.4-0.8c2.3,23.7,26.4,47.6,51,42.1c12.3-2.7,23.7-7.4,24.9-21.3
			c0.9-10.5,0-22.9-5.4-32.3c7.5-1.8,15-3.9,22.4-6.2C322.3,125,320.1,116.9,315,118.5z"/>
	</g>
	<g>
		<path class="st89" d="M325.4,184.5c-6,0-6,9.3,0,9.3C331.4,193.8,331.4,184.5,325.4,184.5z"/>
		<path class="st89" d="M338.9,186.8c-6,0-6,9.3,0,9.3C344.9,196.1,344.9,186.8,338.9,186.8z"/>
		<path class="st89" d="M351.1,204.1c6,0,6-9.3,0-9.3C345.1,194.7,345,204.1,351.1,204.1z"/>
		<path class="st89" d="M356.2,218.6c6,0,6-9.3,0-9.3C350.2,209.2,350.2,218.6,356.2,218.6z"/>
		<path class="st89" d="M355.3,223.7c-6,0-6,9.3,0,9.3C361.3,233.1,361.3,223.7,355.3,223.7z"/>
		<path class="st89" d="M345.9,238.2c-6,0-6,9.3,0,9.3C351.9,247.5,352,238.2,345.9,238.2z"/>
		<path class="st89" d="M329.6,243.8c-6,0-6,9.3,0,9.3C335.6,253.2,335.6,243.8,329.6,243.8z"/>
		<path class="st89" d="M108,187.7c-6,0-6,9.3,0,9.3C114,197.1,114.1,187.7,108,187.7z"/>
		<path class="st89" d="M93.1,190.5c-6,0-6,9.3,0,9.3C99.1,199.9,99.1,190.5,93.1,190.5z"/>
		<path class="st89" d="M82.8,210.2c6,0,6-9.3,0-9.3C76.8,200.8,76.8,210.2,82.8,210.2z"/>
		<path class="st89" d="M75.8,223.7c6,0,6-9.3,0-9.3C69.8,214.4,69.8,223.7,75.8,223.7z"/>
		<path class="st89" d="M76.7,228.9c-6,0-6,9.3,0,9.3C82.7,238.2,82.7,228.9,76.7,228.9z"/>
		<path class="st89" d="M80,240.5c-6,0-6,9.3,0,9.3C86,249.9,86,240.5,80,240.5z"/>
		<path class="st89" d="M89.3,247.5c-6,0-6,9.3,0,9.3C95.4,256.9,95.4,247.5,89.3,247.5z"/>
		<path class="st89" d="M105.2,254.1c-6,0-6,9.3,0,9.3C111.2,263.4,111.3,254.1,105.2,254.1z"/>
	</g>
</g>
</svg>
