<?xml version="1.0" encoding="utf-8"?>
<!-- Generator: Adobe Illustrator 21.1.0, SVG Export Plug-In . SVG Version: 6.00 Build 0)  -->
<svg version="1.1" id="Calque_1" xmlns="http://www.w3.org/2000/svg" xmlns:xlink="http://www.w3.org/1999/xlink" x="0px" y="0px"
	 viewBox="0 0 432 432" style="enable-background:new 0 0 432 432;" xml:space="preserve">
<style type="text/css">
	.st0{fill:#E94E1B;}
	.st1{fill:#F39200;}
	.st2{fill:#010202;}
	.st3{fill:#FFE564;}
	.st4{fill:#B2B2B2;}
	.st5{fill:#C6CAD2;}
	.st6{fill:#662483;}
	.st7{fill:#D2E0E9;}
	.st8{fill:#95C11F;}
	.st9{fill:#3AAA35;}
	.st10{fill:#432918;}
</style>
<g>
	<path class="st1" d="M236.1,308.6c-5.6-1.4-11.9-1.4-17.6-1.4c-6.2-0.1-12.5,0-18.7,0.8c-5,0.6-9.5,2.2-11.8,7.1
		c-2.5,5.4-3,12.1-2.8,18c0.3,5.8,1.9,11.2,6.8,14.7c3.3,2.4,7,3.4,10.9,3.8c-0.1,3.8,0.2,7.7,1.2,11.2c0.5,1.7,1.4,4,3.5,4.1
		c3.2,0.1,3.4-4,5.1-6c0.7,2.1,1.9,5.6,3.9,5.5c1.7-0.1,3.2-3.1,4.1-5.2c0.5,2.1,0.8,5.2,2.7,5.9c1.6,0.6,2.7-1.2,3.3-2.3
		c2.1-3.9,3-8.7,3-13.5c7.8-1.2,14.8-4.7,16.6-13.7c1.1-5.8,0.6-12-0.7-17.7C244.3,314.4,241.9,310.1,236.1,308.6z M200.6,333.8
		c-2.9-1.1-4.3-3.7-4.7-6.6c-0.3-3.9,1-7.9,4.7-9.7c3-1.5,6.7-0.8,8.7,1.9c2.6,3.6,2.3,9.5-0.8,12.7
		C206.4,334.2,203.4,334.9,200.6,333.8z M222.1,344.1c-0.4,1.7-1.7,3.4-3.5,2.4c-1-0.5-1.7-1.6-2.1-2.8c-0.6,1.3-1.5,2.5-2.7,3.2
		c-1.4,0.8-2.8,0.4-3.6-1.1c-1.9-3.9,2-9.8,4.8-12.4c0,0,0,0,0.1-0.1c0,0,0,0,0,0c0.2-0.2,0.5-0.2,0.6-0.1
		C219.8,334.8,223.2,339.6,222.1,344.1z M236.1,327.3c-0.5,2.9-1.9,5.5-4.7,6.6c-2.7,1-5.8,0.4-7.8-1.7c-3.2-3.2-3.5-9.1-0.8-12.7
		c2-2.7,5.7-3.4,8.7-1.9C235.1,319.3,236.4,323.4,236.1,327.3z"/>
	<path class="st1" d="M305.3,309.1c-3.1-4.9-7.3-8.7-13.2-9.3c-4-0.4-7.8,0.6-11.4,2.1c-1.8-3.4-4-6.6-6.6-9.1
		c-1.3-1.2-3.3-2.8-5.1-1.8c-2.8,1.5-1,5.2-1.4,7.8c-1.7-1.5-4.5-3.9-6.1-2.8c-1.4,0.9-1.2,4.3-1,6.5c-1.5-1.6-3.3-4.1-5.3-3.8
		c-1.6,0.3-1.7,2.3-1.7,3.6c0.1,4.4,1.8,9,4.2,13.1c-6.2,4.9-10.5,11.5-7.5,20.2c1.9,5.6,5.4,10.7,9.4,15c3.9,4.2,8.1,6.7,13.9,5.1
		c5.6-1.5,11-4.8,16-7.6c5.4-3,10.8-6.3,15.8-10c4.1-3,7.1-6.7,6.6-12C311.4,320.2,308.5,314.1,305.3,309.1z M279.6,339.6
		c-0.4,3.4-3.2,5.8-6.6,6c-4.1,0.3-7.3-2.6-8.9-6.1c-1-2.7-1.1-5.7,0.8-8c1.9-2.3,4.8-3.2,7.6-2.4
		C276.9,330.2,280.1,335.2,279.6,339.6z M279.4,323.6C279.4,323.6,279.3,323.7,279.4,323.6c0,0.1,0,0.1,0,0.1
		c-0.1,0.3-0.3,0.4-0.5,0.4c-4.3,0.8-9.7-1.7-11-6.1c-0.5-1.6-0.2-3.8,1.9-3.8c1.1,0,2.3,0.6,3.2,1.3c-0.1-1.4,0-2.9,0.7-4.2
		c0.8-1.4,2.3-1.7,3.6-0.8C280.9,313,280.4,320,279.4,323.6z M299.8,330.3c-1.9,2.8-5.4,4.1-8.5,2.7c-4.1-1.8-6.8-7.1-5.6-11.4
		c0.8-2.8,3-4.9,5.9-5.4c3-0.5,5.5,1.1,7.4,3.3C301.2,322.7,302.1,326.8,299.8,330.3z"/>
	<path class="st1" d="M340,271.9c2.9-7.4,3.3-15.2-3.6-21.2c-4.4-3.9-10.1-6.6-15.6-8.3c-5.4-1.7-10.4-1.7-14.6,2.6
		c-4.1,4.1-7.1,9.6-10.1,14.5c-3.2,5.3-6.2,10.9-8.7,16.6c-2,4.7-2.8,9.4,0.3,13.7c3.4,4.9,9,8.7,14.2,11.4
		c5.1,2.7,10.7,3.9,16.1,1.4c3.7-1.7,6.5-4.4,8.8-7.5c3.3,2,6.7,3.7,10.3,4.6c1.7,0.4,4.2,0.8,5.3-1c1.7-2.7-1.8-5-2.7-7.4
		c2.2,0.4,5.8,1.1,6.7-0.6c0.8-1.5-1.1-4.3-2.4-6.1c2.1,0.6,4.9,1.9,6.5,0.6c1.3-1.1,0.3-2.9-0.4-4
		C347.9,277.4,344.1,274.2,340,271.9z M311.6,253.4c3.4-2.3,7.6-1.4,10.8,0.8c2.3,1.9,3.8,4.3,3.3,7.4c-0.5,2.9-2.6,5.2-5.4,5.9
		c-4.3,1.1-9.6-1.5-11.4-5.6C307.6,258.8,308.9,255.3,311.6,253.4z M310.4,288.2c-2.4,1.9-5.3,1.8-8,0.8c-3.5-1.7-6.4-4.8-6.1-8.9
		c0.2-3.3,2.6-6.2,6-6.6c4.4-0.5,9.4,2.7,10.6,7.1C313.6,283.4,312.6,286.4,310.4,288.2z M330.3,279c-1,0.6-2.2,0.7-3.5,0.5
		c0.8,1.2,1.4,2.6,1.4,4c0,1.7-1.1,2.7-2.7,2.5c-4.4-0.3-7.4-6.6-8.4-10.3c0,0,0,0,0-0.1c0,0,0,0,0-0.1c-0.1-0.3,0-0.5,0.2-0.6
		c3.4-2.8,9.2-3.4,12.6-0.2C331.3,275.9,332.1,277.9,330.3,279z"/>
	<path class="st1" d="M366.4,199.7c-0.6-5-2.2-9.5-7.1-11.8c-5.4-2.5-12.1-3-18-2.8c-5.8,0.3-11.2,1.9-14.7,6.8
		c-2.4,3.3-3.4,7-3.8,10.9c-3.8-0.1-7.7,0.2-11.2,1.2c-1.7,0.5-4,1.4-4.1,3.5c-0.1,3.2,4,3.4,6,5.1c-2.1,0.7-5.6,1.9-5.5,3.9
		c0.1,1.7,3.1,3.2,5.2,4.1c-2.1,0.5-5.2,0.8-5.9,2.7c-0.6,1.6,1.2,2.7,2.3,3.3c3.9,2.1,8.7,3,13.5,3c1.2,7.8,4.7,14.8,13.7,16.6
		c5.8,1.1,12,0.6,17.7-0.7c5.5-1.3,9.8-3.7,11.3-9.5c1.5-5.6,1.4-11.9,1.4-17.6C367.3,212.2,367.1,205.9,366.4,199.7z M330.2,222.1
		c-1.7-0.4-3.4-1.7-2.4-3.5c0.5-1,1.6-1.7,2.8-2.1c-1.3-0.6-2.5-1.5-3.2-2.7c-0.8-1.4-0.4-2.8,1.1-3.6c3.9-1.9,9.8,2,12.4,4.8
		c0,0,0,0,0.1,0.1c0,0,0,0,0,0c0.2,0.2,0.2,0.5,0.1,0.6C339.5,219.8,334.8,223.2,330.2,222.1z M356.8,231.4c-1.8,3.7-5.9,5-9.7,4.7
		c-2.9-0.5-5.5-1.9-6.6-4.7c-1-2.7-0.4-5.8,1.7-7.8c3.2-3.2,9.1-3.5,12.7-0.8C357.6,224.7,358.3,228.4,356.8,231.4z M354.9,209.3
		c-3.6,2.6-9.5,2.3-12.7-0.8c-2.1-2.1-2.7-5.1-1.7-7.8c1.1-2.9,3.7-4.3,6.6-4.7c3.9-0.3,7.9,1,9.7,4.7
		C358.3,203.6,357.6,207.3,354.9,209.3z"/>
	<path class="st1" d="M291.2,138.4c-4.2,3.9-6.7,8.1-5.1,13.9c1.5,5.6,4.8,11,7.6,16c3,5.4,6.3,10.8,10,15.8c3,4.1,6.7,7.1,12,6.6
		c5.9-0.6,12-3.4,17-6.6c4.9-3.1,8.7-7.3,9.3-13.2c0.4-4-0.6-7.8-2.1-11.4c3.4-1.8,6.6-4,9.1-6.6c1.2-1.3,2.8-3.3,1.8-5.1
		c-1.5-2.8-5.2-1-7.8-1.4c1.5-1.7,3.9-4.5,2.8-6.1c-0.9-1.4-4.3-1.2-6.5-1c1.6-1.5,4.1-3.3,3.8-5.3c-0.3-1.6-2.3-1.7-3.6-1.7
		c-4.4,0.1-9,1.8-13.1,4.2c-4.9-6.2-11.5-10.5-20.2-7.5C300.7,130.9,295.5,134.5,291.2,138.4z M322.4,177.8
		c-3.2,2.2-7.4,3.1-10.8,0.8c-2.8-1.9-4.1-5.4-2.7-8.5c1.8-4.1,7.1-6.8,11.4-5.6c2.8,0.8,4.9,3,5.4,5.9
		C326.2,173.4,324.7,175.9,322.4,177.8z M323.9,146.6c1.6-0.5,3.8-0.2,3.8,1.9c0,1.1-0.6,2.3-1.3,3.2c1.4-0.1,2.9,0,4.2,0.7
		c1.4,0.8,1.7,2.3,0.8,3.6c-2.5,3.6-9.5,3.1-13.1,2.1c0,0-0.1,0-0.1,0c0,0,0,0-0.1,0c-0.3-0.1-0.4-0.3-0.4-0.5
		C317,153.3,319.4,148,323.9,146.6z M310.4,143.8c2.3,1.9,3.2,4.8,2.4,7.6c-1.2,4.3-6.1,7.5-10.6,7.1c-3.4-0.4-5.8-3.2-6-6.6
		c-0.3-4.1,2.6-7.3,6.1-8.9C305.1,141.9,308,141.8,310.4,143.8z"/>
	<path class="st1" d="M258.1,117c-2,3.3-3.7,6.7-4.6,10.3c-0.4,1.7-0.8,4.2,1,5.3c2.7,1.7,5-1.8,7.4-2.7c-0.4,2.2-1.1,5.8,0.6,6.7
		c1.5,0.8,4.3-1.1,6.1-2.4c-0.6,2.1-1.9,4.9-0.6,6.5c1.1,1.3,2.9,0.3,4-0.4c3.8-2.3,6.9-6.1,9.3-10.2c7.4,2.9,15.2,3.3,21.2-3.6
		c3.9-4.4,6.6-10.1,8.3-15.6c1.7-5.4,1.7-10.4-2.6-14.6c-4.1-4.1-9.6-7.1-14.5-10.1c-5.3-3.2-10.9-6.2-16.6-8.7
		c-4.7-2-9.4-2.8-13.7,0.3c-4.9,3.4-8.7,9-11.4,14.2c-2.7,5.1-3.9,10.7-1.4,16.1C252.2,111.9,254.9,114.7,258.1,117z M291.3,99.1
		c3.1-1.4,6.6-0.1,8.5,2.7c2.3,3.4,1.4,7.6-0.8,10.8c-1.9,2.3-4.3,3.8-7.4,3.3c-2.9-0.5-5.2-2.6-5.9-5.4
		C284.5,106.1,287.2,100.9,291.3,99.1z M278.4,120.1c-1.2,1.2-3.2,2.1-4.3,0.3c-0.6-1-0.7-2.2-0.5-3.5c-1.2,0.8-2.6,1.4-4,1.4
		c-1.7,0-2.7-1.1-2.5-2.7c0.3-4.4,6.6-7.4,10.3-8.4c0,0,0,0,0.1,0c0,0,0,0,0.1,0c0.3-0.1,0.5,0,0.6,0.2
		C281.1,110.9,281.6,116.7,278.4,120.1z M264.1,92.4c1.7-3.5,4.8-6.4,8.9-6.1c3.3,0.2,6.2,2.6,6.6,6c0.5,4.4-2.7,9.4-7.1,10.6
		c-2.8,0.8-5.8-0.2-7.6-2.4C263,98.1,263.1,95.2,264.1,92.4z"/>
	<path class="st1" d="M195.9,123.4c5.6,1.4,11.9,1.4,17.6,1.4c6.2,0.1,12.5,0,18.7-0.8c5-0.6,9.5-2.2,11.8-7.1
		c2.5-5.4,3-12.1,2.8-18c-0.3-5.8-1.9-11.2-6.8-14.7c-3.3-2.4-7-3.4-10.9-3.8c0.1-3.8-0.2-7.7-1.2-11.2c-0.5-1.7-1.4-4-3.5-4.1
		c-3.2-0.1-3.4,4-5.1,6c-0.7-2.1-1.9-5.6-3.9-5.5c-1.7,0.1-3.2,3.1-4.1,5.2c-0.5-2.1-0.8-5.2-2.7-5.9c-1.6-0.6-2.7,1.2-3.3,2.3
		c-2.1,3.9-3,8.7-3,13.5c-7.8,1.2-14.8,4.7-16.6,13.7c-1.1,5.8-0.6,12,0.7,17.7C187.7,117.6,190.1,121.9,195.9,123.4z M231.4,98.2
		c2.9,1.1,4.3,3.7,4.7,6.6c0.3,3.9-1,7.9-4.7,9.7c-3,1.5-6.7,0.8-8.7-1.9c-2.6-3.6-2.3-9.5,0.8-12.7
		C225.6,97.8,228.6,97.1,231.4,98.2z M209.9,87.9c0.4-1.7,1.7-3.4,3.5-2.4c1,0.5,1.7,1.6,2.1,2.8c0.6-1.3,1.5-2.5,2.7-3.2
		c1.4-0.8,2.8-0.4,3.6,1.1c1.9,3.9-2,9.8-4.8,12.4c0,0,0,0-0.1,0.1c0,0,0,0,0,0c-0.2,0.2-0.5,0.2-0.6,0.1
		C212.2,97.2,208.8,92.4,209.9,87.9z M195.9,104.7c0.5-2.9,1.9-5.5,4.7-6.6c2.7-1,5.8-0.4,7.8,1.7c3.2,3.2,3.5,9.1,0.8,12.7
		c-2,2.7-5.7,3.4-8.7,1.9C196.9,112.7,195.6,108.6,195.9,104.7z"/>
	<path class="st1" d="M126.7,122.9c3.1,4.9,7.3,8.7,13.2,9.3c4,0.4,7.8-0.6,11.4-2.1c1.8,3.4,4,6.6,6.6,9.1c1.3,1.2,3.3,2.8,5.1,1.8
		c2.8-1.5,1-5.2,1.4-7.8c1.7,1.5,4.5,3.9,6.1,2.8c1.4-0.9,1.2-4.3,1-6.5c1.5,1.6,3.3,4.1,5.3,3.8c1.6-0.3,1.7-2.3,1.7-3.6
		c-0.1-4.4-1.8-9-4.2-13.1c6.2-4.9,10.5-11.5,7.5-20.2c-1.9-5.6-5.4-10.7-9.4-15c-3.9-4.2-8.1-6.7-13.9-5.1c-5.6,1.5-11,4.8-16,7.6
		c-5.4,3-10.8,6.3-15.8,10c-4.1,3-7.1,6.7-6.6,12C120.6,111.8,123.5,117.9,126.7,122.9z M152.4,92.4c0.4-3.4,3.2-5.8,6.6-6
		c4.1-0.3,7.3,2.6,8.9,6.1c1,2.7,1.1,5.7-0.8,8c-1.9,2.3-4.8,3.2-7.6,2.4C155.1,101.8,151.9,96.8,152.4,92.4z M152.6,108.4
		C152.6,108.4,152.7,108.3,152.6,108.4c0-0.1,0-0.1,0-0.1c0.1-0.3,0.3-0.4,0.5-0.4c4.3-0.8,9.7,1.7,11,6.1c0.5,1.6,0.2,3.8-1.9,3.8
		c-1.1,0-2.3-0.6-3.2-1.3c0.1,1.4,0,2.9-0.7,4.2c-0.8,1.4-2.3,1.7-3.6,0.8C151.1,119,151.6,112,152.6,108.4z M132.2,101.7
		c1.9-2.8,5.4-4.1,8.5-2.7c4.1,1.8,6.8,7.1,5.6,11.4c-0.8,2.8-3,4.9-5.9,5.4c-3,0.5-5.5-1.1-7.4-3.3
		C130.8,109.3,129.9,105.2,132.2,101.7z"/>
	<path class="st1" d="M92,160.1c-2.9,7.4-3.3,15.2,3.6,21.2c4.4,3.9,10.1,6.6,15.6,8.3c5.4,1.7,10.4,1.7,14.6-2.6
		c4.1-4.1,7.1-9.6,10.1-14.5c3.2-5.3,6.2-10.9,8.7-16.6c2-4.7,2.8-9.4-0.3-13.7c-3.4-4.9-9-8.7-14.2-11.4
		c-5.1-2.7-10.7-3.9-16.1-1.4c-3.7,1.7-6.5,4.4-8.8,7.5c-3.3-2-6.7-3.7-10.3-4.6c-1.7-0.4-4.2-0.8-5.3,1c-1.7,2.7,1.8,5,2.7,7.4
		c-2.2-0.4-5.8-1.1-6.7,0.6c-0.8,1.5,1.1,4.3,2.4,6.1c-2.1-0.6-4.9-1.9-6.5-0.6c-1.3,1.1-0.3,2.9,0.4,4
		C84.1,154.6,87.9,157.8,92,160.1z M120.4,178.6c-3.4,2.3-7.6,1.4-10.8-0.8c-2.3-1.9-3.8-4.3-3.3-7.4c0.5-2.9,2.6-5.2,5.4-5.9
		c4.3-1.1,9.6,1.5,11.4,5.6C124.4,173.2,123.1,176.7,120.4,178.6z M121.6,143.8c2.4-1.9,5.3-1.8,8-0.8c3.5,1.7,6.4,4.8,6.1,8.9
		c-0.2,3.3-2.6,6.2-6,6.6c-4.4,0.5-9.4-2.7-10.6-7.1C118.4,148.6,119.4,145.6,121.6,143.8z M101.7,153c1-0.6,2.2-0.7,3.5-0.5
		c-0.8-1.2-1.4-2.6-1.4-4c0-1.7,1.1-2.7,2.7-2.5c4.4,0.3,7.4,6.6,8.4,10.3c0,0,0,0,0,0.1c0,0,0,0,0,0.1c0.1,0.3,0,0.5-0.2,0.6
		c-3.4,2.8-9.2,3.4-12.6,0.2C100.7,156.1,99.9,154.1,101.7,153z"/>
	<path class="st1" d="M90.7,246.8c5.8-0.3,11.2-1.9,14.7-6.8c2.4-3.3,3.4-7,3.8-10.9c3.8,0.1,7.7-0.2,11.2-1.2
		c1.7-0.5,4-1.4,4.1-3.5c0.1-3.2-4-3.4-6-5.1c2.1-0.7,5.6-1.9,5.5-3.9c-0.1-1.7-3.1-3.2-5.2-4.1c2.1-0.5,5.2-0.8,5.9-2.7
		c0.6-1.6-1.2-2.7-2.3-3.3c-3.9-2.1-8.7-3-13.5-3c-1.2-7.8-4.7-14.8-13.7-16.6c-5.8-1.1-12-0.6-17.7,0.7c-5.5,1.3-9.8,3.7-11.3,9.5
		c-1.4,5.6-1.4,11.9-1.4,17.6c-0.1,6.2,0,12.5,0.8,18.7c0.6,5,2.2,9.5,7.1,11.8C78.1,246.5,84.8,247.1,90.7,246.8z M101.8,209.9
		c1.7,0.4,3.4,1.7,2.4,3.5c-0.5,1-1.6,1.7-2.8,2.1c1.3,0.6,2.5,1.5,3.2,2.7c0.8,1.4,0.4,2.8-1.1,3.6c-3.9,1.9-9.8-2-12.4-4.8
		c0,0,0,0-0.1-0.1c0,0,0,0,0,0c-0.2-0.2-0.2-0.5-0.1-0.6C92.5,212.2,97.2,208.8,101.8,209.9z M75.2,200.6c1.8-3.7,5.9-5,9.7-4.7
		c2.9,0.5,5.5,1.9,6.6,4.7c1,2.7,0.4,5.8-1.7,7.8c-3.2,3.2-9.1,3.5-12.7,0.8C74.4,207.3,73.7,203.6,75.2,200.6z M75.2,231.4
		c-1.5-3-0.8-6.7,1.9-8.7c3.6-2.6,9.5-2.3,12.7,0.8c2.1,2.1,2.7,5.1,1.7,7.8c-1.1,2.9-3.7,4.3-6.6,4.7C81,236.4,77,235.1,75.2,231.4
		z"/>
	<path class="st1" d="M140.8,293.6c4.2-3.9,6.7-8.1,5.1-13.9c-1.5-5.6-4.8-11-7.6-16c-3-5.4-6.3-10.8-10-15.8c-3-4.1-6.7-7.1-12-6.6
		c-5.9,0.6-12,3.4-17,6.6c-4.9,3.1-8.7,7.3-9.3,13.2c-0.4,4,0.6,7.8,2.1,11.4c-3.4,1.8-6.6,4-9.1,6.6c-1.2,1.3-2.8,3.3-1.8,5.1
		c1.5,2.8,5.2,1,7.8,1.4c-1.5,1.7-3.9,4.5-2.8,6.1c0.9,1.4,4.3,1.2,6.5,1c-1.6,1.5-4.1,3.3-3.8,5.3c0.3,1.6,2.3,1.7,3.6,1.7
		c4.4-0.1,9-1.8,13.1-4.2c4.9,6.2,11.5,10.5,20.2,7.5C131.3,301.1,136.5,297.5,140.8,293.6z M109.6,254.2c3.2-2.2,7.4-3.1,10.8-0.8
		c2.8,1.9,4.1,5.4,2.7,8.5c-1.8,4.1-7.1,6.8-11.4,5.6c-2.8-0.8-4.9-3-5.4-5.9C105.8,258.6,107.3,256.1,109.6,254.2z M108.1,285.4
		c-1.6,0.5-3.8,0.2-3.8-1.9c0-1.1,0.6-2.3,1.3-3.2c-1.4,0.1-2.9,0-4.2-0.7c-1.4-0.8-1.7-2.3-0.8-3.6c2.5-3.6,9.5-3.1,13.1-2.1
		c0,0,0.1,0,0.1,0c0,0,0,0,0.1,0c0.3,0.1,0.4,0.3,0.4,0.5C115,278.7,112.6,284,108.1,285.4z M121.6,288.2c-2.3-1.9-3.2-4.8-2.4-7.6
		c1.2-4.3,6.1-7.5,10.6-7.1c3.4,0.4,5.8,3.2,6,6.6c0.3,4.1-2.6,7.3-6.1,8.9C126.9,290.1,124,290.2,121.6,288.2z"/>
	<path class="st1" d="M173.9,315c2-3.3,3.7-6.7,4.6-10.3c0.4-1.7,0.8-4.2-1-5.3c-2.7-1.7-5,1.8-7.4,2.7c0.4-2.2,1.1-5.8-0.6-6.7
		c-1.5-0.8-4.3,1.1-6.1,2.4c0.6-2.1,1.9-4.9,0.6-6.5c-1.1-1.3-2.9-0.3-4,0.4c-3.8,2.3-6.9,6.1-9.3,10.2c-7.4-2.9-15.2-3.3-21.2,3.6
		c-3.9,4.4-6.6,10.1-8.3,15.6c-1.7,5.4-1.7,10.4,2.6,14.6c4.1,4.1,9.6,7.1,14.5,10.1c5.3,3.2,10.9,6.2,16.6,8.7
		c4.7,2,9.4,2.8,13.7-0.3c4.9-3.4,8.7-9,11.4-14.2c2.7-5.1,3.9-10.7,1.4-16.1C179.8,320.1,177.1,317.3,173.9,315z M140.7,332.9
		c-3.1,1.4-6.6,0.1-8.5-2.7c-2.3-3.4-1.4-7.6,0.8-10.8c1.9-2.3,4.3-3.8,7.4-3.3c2.9,0.5,5.2,2.6,5.9,5.4
		C147.5,325.9,144.8,331.1,140.7,332.9z M153.6,311.9c1.2-1.2,3.2-2.1,4.3-0.3c0.6,1,0.7,2.2,0.5,3.5c1.2-0.8,2.6-1.4,4-1.4
		c1.7,0,2.7,1.1,2.5,2.7c-0.3,4.4-6.6,7.4-10.3,8.4c0,0,0,0-0.1,0c0,0,0,0-0.1,0c-0.3,0.1-0.5,0-0.6-0.2
		C150.9,321.1,150.4,315.3,153.6,311.9z M167.9,339.6c-1.7,3.5-4.8,6.4-8.9,6.1c-3.3-0.2-6.2-2.6-6.6-6c-0.5-4.4,2.7-9.4,7.1-10.6
		c2.8-0.8,5.8,0.2,7.6,2.4C169,333.9,168.9,336.8,167.9,339.6z"/>
</g>
</svg>
